<svg width="22" height="22" viewBox="0 0 22 22" fill="none" xmlns="http://www.w3.org/2000/svg">
<path d="M10.835 21.6798C4.84491 21.6798 0 16.8348 0 10.8447C0 4.85467 4.84491 0.00976562 10.835 0.00976562C16.8251 0.00976562 21.67 4.85467 21.67 10.8447C21.67 16.8348 16.8251 21.6798 10.835 21.6798ZM10.835 0.626401C5.19726 0.626401 0.61661 5.20702 0.61661 10.8447C0.61661 16.4825 5.19726 21.0631 10.835 21.0631C16.4727 21.0631 21.0534 16.4825 21.0534 10.8447C21.0534 5.20702 16.4727 0.626401 10.835 0.626401Z" fill="#232020"/>
<path d="M10.8346 7.40947C10.218 7.40947 9.68945 6.88092 9.68945 6.26429C9.68945 5.64767 10.218 5.11914 10.8346 5.11914C11.4512 5.11914 11.9798 5.64767 11.9798 6.26429C11.9798 6.88092 11.4512 7.40947 10.8346 7.40947ZM10.8346 5.64768C10.5703 5.64768 10.3061 5.91193 10.3061 6.1762C10.3061 6.44046 10.5703 6.70474 10.8346 6.70474C11.0989 6.70474 11.3631 6.44046 11.3631 6.1762C11.4512 5.91193 11.187 5.64768 10.8346 5.64768Z" fill="#232020"/>
<path d="M10.836 16.0422C10.6598 16.0422 10.5717 15.9541 10.5717 15.7779V9.34742H9.3385C9.16232 9.34742 9.07422 9.25928 9.07422 9.0831C9.07422 8.90693 9.16232 8.81885 9.3385 8.81885H10.836C11.0122 8.81885 11.1003 8.90693 11.1003 9.0831V15.7779C11.1884 15.9541 11.0122 16.0422 10.836 16.0422Z" fill="#232020"/>
<path d="M12.9494 16.0417H8.80921C8.63303 16.0417 8.54492 15.9536 8.54492 15.7774C8.54492 15.6013 8.63303 15.5132 8.80921 15.5132H12.9494C13.1256 15.5132 13.2137 15.6013 13.2137 15.7774C13.2137 15.9536 13.0375 16.0417 12.9494 16.0417Z" fill="#232020"/>
</svg>
