<svg width="121" height="89" viewBox="0 0 121 89" fill="none" xmlns="http://www.w3.org/2000/svg">
<path d="M119.923 29.9547C119.73 29.2672 120.067 27.9327 119.779 26.5981C119.49 25.304 116.605 20.6533 115.355 19.3592C114.105 18.0652 106.846 8.6425 104.923 6.01386C103.096 3.54698 100.163 1.80804 98.9611 1.12055C98.4323 0.797023 97.4226 0.392618 93.913 0.109534C90.4034 -0.13311 85.1629 0.0690929 83.961 0.311736C83.0956 0.473499 82.2783 0.797022 81.7975 0.999225C81.3649 1.16099 81.0283 1.40363 80.9802 1.80804C80.9802 2.29332 80.9802 5.89254 80.9802 6.33738C80.9802 6.37782 80.9802 6.37782 80.9322 6.41826C80.2591 7.26752 79.7783 7.99545 80.9802 8.35941C81.0283 8.35941 81.0283 8.39985 81.0283 8.39985C81.1726 9.41087 81.461 9.69395 82.3745 9.89615C82.4226 9.89615 82.4226 9.93659 82.4226 9.93659C82.6149 10.6241 83.913 10.7454 84.3456 10.6241C84.3937 10.6241 84.3937 10.6241 84.4418 10.6645C84.7303 11.0285 85.5956 11.5138 86.461 11.1094H86.5091C86.7014 11.3116 87.086 11.5138 87.5668 11.5542C87.6149 11.5542 87.663 11.5542 87.7111 11.5542C88.0476 11.5542 88.7687 11.5542 89.2976 11.352C90.0188 11.0689 92.0861 10.0579 92.4707 9.85571C92.8072 9.69395 92.9995 9.08734 92.9034 8.72338C92.9034 8.72338 92.9034 8.68294 92.9515 8.68294C93.3842 8.76382 93.9611 8.80426 94.8265 8.68294C95.163 8.6425 95.4995 8.60205 95.7399 8.56161C96.2688 8.48073 96.0284 8.8447 96.2688 9.28954C96.5092 9.73439 96.99 10.0984 97.615 11.4329C98.24 12.7674 100.163 16.3666 100.692 17.135C101.221 17.9034 101.365 21.1791 102.278 22.6349V22.6754C100.307 22.5541 98.1438 22.918 95.788 23.6864C94.3457 24.1312 93.288 24.7783 92.4707 25.4658C92.4707 25.4658 92.4226 25.5062 92.3745 25.4658C91.0284 24.9805 88.5284 24.9805 84.2014 25.9915C82.8072 26.315 81.7014 26.8003 80.7879 27.4069C80.7399 27.4069 80.7399 27.4474 80.6918 27.4069H80.6437C79.7783 27.2452 78.336 27.0025 76.0283 27.0834C74.009 27.1238 72.9033 26.8812 72.0379 27.4878C72.0379 27.4878 71.9898 27.5282 71.9417 27.4878C70.6917 26.8812 69.4417 26.1128 68.9609 25.3849C68.9609 25.3445 68.9609 25.3445 68.9129 25.304C68.9129 25.2231 68.9129 25.1827 68.9129 25.1423C68.9129 25.1018 68.9129 25.1018 68.9609 25.0614C69.2975 24.7783 69.4898 24.4952 69.634 24.0504C69.7783 23.4842 70.0667 22.1901 70.3552 20.8555C70.3552 20.8555 70.4033 20.8151 70.4033 20.8555C70.4513 20.8555 70.4513 20.896 70.4994 20.896C70.7879 21.0173 71.461 21.1791 72.1821 19.521C72.9033 17.8629 73.1917 17.4181 73.384 17.135C73.5283 16.8519 73.5764 14.9917 73.0956 14.1424C72.9513 13.8593 72.759 13.3336 72.2783 13.3336C72.0379 13.3336 71.7013 13.4954 71.3648 13.6976C71.509 13.5358 71.6052 13.374 71.6533 13.1718C71.7975 12.6461 72.086 11.4733 72.3744 10.2601C72.6629 9.08734 72.3744 7.95501 72.2302 7.42928C72.134 7.18663 72.0379 6.94399 71.8456 6.74179L71.5571 6.33738C71.5571 6.29694 71.5571 6.29694 71.5571 6.2565C71.5571 6.17562 71.5571 5.93298 71.4129 5.40725C71.3648 5.16461 71.2206 4.9624 71.0283 4.7602C68.2398 1.84848 63.9128 0.594819 60.259 0.594819C56.7013 0.594819 51.4128 2.85949 49.2493 4.11315C49.0089 4.23447 48.7685 4.43667 48.6243 4.63888C47.9993 5.64989 47.6627 7.71236 47.6147 9.16822C47.5666 10.4623 48.7204 12.8888 49.1531 13.8189C49.1531 13.8189 49.1531 13.8189 49.1051 13.8189C48.7204 13.6167 48.2878 13.374 48.0474 13.374C47.5666 13.374 47.3743 13.8189 47.23 14.1424C46.7493 14.9512 46.7974 16.8519 46.9416 17.135C47.0858 17.4181 47.4224 17.9034 48.1435 19.521C48.8647 21.1791 49.5858 21.0173 49.8743 20.896C50.0185 20.8556 50.1147 20.7747 50.1628 20.7747C50.2108 20.7747 50.2108 20.7747 50.2108 20.8151C50.4031 22.1496 50.6435 23.4842 50.7878 24.0504C50.8358 24.293 50.932 24.4548 51.0281 24.6165C51.0281 24.657 51.0281 24.657 51.0281 24.6974C50.932 25.5062 50.7878 26.4768 50.5474 26.5577C50.307 26.6386 49.8743 27.8518 49.3935 28.1349C49.3935 28.1349 49.3454 28.1753 49.2974 28.1349C48.3839 27.8922 46.6531 27.4878 45.0185 27.4069C42.855 27.2856 41.4127 27.6091 40.7877 27.8113C40.7396 27.8113 40.7396 27.8113 40.6916 27.8113C39.5377 27.1643 37.9031 26.5577 35.4031 26.0724C32.3742 25.5062 29.9703 25.5871 28.1434 25.9106C28.0953 25.9106 28.0953 25.9106 28.0473 25.8702C27.1819 24.94 26.028 24.1312 24.4895 23.646C21.8453 22.7967 19.778 22.4327 17.951 22.7967C17.951 22.7967 17.903 22.7967 17.903 22.7563C18.0953 22.4327 18.4799 21.6644 18.7203 20.7342C19.153 18.9144 19.3934 16.5284 19.8261 15.76C20.5953 14.5064 23.0472 10.5432 23.2395 10.4219C23.9607 10.0579 24.2011 9.49175 24.4895 9.45131H24.5376C24.5857 9.45131 24.5857 9.45131 24.6338 9.45131C25.2588 9.57263 25.9799 9.69395 26.6049 9.69395C26.653 9.69395 26.653 9.73439 26.653 9.73439C26.6049 9.93659 26.3165 10.341 26.5569 10.6241C26.7972 10.9072 27.9992 11.1094 28.2876 11.1498C28.3357 11.1498 28.3357 11.1498 28.3838 11.1903C28.5761 11.2711 29.2973 11.6755 29.9223 11.716C30.0184 11.7564 30.1146 11.7969 30.2588 11.7969C30.8838 11.8373 31.605 11.7564 31.9415 11.3925H31.9896C32.0857 11.5138 32.278 11.6755 32.6146 11.6755C33.4319 11.6755 34.3454 11.5542 34.4896 10.8263C34.4896 10.8263 34.5377 10.7858 34.5377 10.8263C34.6338 10.9072 34.8261 10.9476 35.0665 10.9881C35.8838 10.9881 36.7973 10.8667 36.9415 10.1388C36.9415 10.0984 36.9415 10.0984 36.9415 10.0579C36.9415 10.0579 36.9415 10.0175 36.9896 10.0175C36.9896 10.0175 37.0377 10.0175 37.0858 10.0175C37.855 10.0984 38.8165 9.89615 38.9608 9.16822C39.0089 8.8447 38.9608 8.6425 38.9608 7.7528C38.9608 7.51016 39.2973 6.37782 39.105 5.44769C39.0569 5.24549 38.7204 4.92196 38.7204 4.71976C38.7204 4.67932 38.7204 4.59844 38.7204 4.558C38.7204 4.59844 38.7685 4.59844 38.7685 4.558C38.8165 3.62786 38.7685 0.433058 36.2685 0.352176C35.0184 0.311736 29.8261 -0.09267 26.3165 0.149973C22.8068 0.392617 21.8453 0.958785 21.2684 1.16099C19.5376 1.68672 17.6626 3.62786 17.6626 3.62786C16.8453 4.27491 16.028 5.08372 15.3068 6.0543C13.3356 8.68293 6.12406 18.0651 4.87405 19.3997C3.62404 20.6938 0.739408 25.3445 0.450945 26.6386C0.162482 27.9327 0.595176 29.429 0.450945 30.1164C0.35479 30.4804 0.21056 30.8039 0.114406 31.0466C0.0663287 31.1275 0.0182493 31.2488 0.0182493 31.3701C0.0182493 31.4105 0.0182493 31.451 0.0182493 31.451C-0.0779051 32.0172 0.162483 32.7855 1.79711 33.3112C1.84518 33.3112 1.84518 33.3517 1.89326 33.3517C3.09519 34.3223 5.01828 34.848 8.1433 36.87C11.3164 38.8921 17.0857 41.0758 22.5184 41.8847C25.403 42.2891 26.0761 42.1273 27.0857 42.1677C27.1338 42.1677 27.1338 42.1677 27.1819 42.2082C27.6626 42.6126 28.2876 43.8662 29.5376 44.8368C31.7011 46.4949 31.028 46.4544 31.7011 48.1934C32.3261 50.8625 33.2877 53.9764 34.6338 56.1197C36.1723 58.5462 37.0377 59.4763 37.5665 60.002C37.5665 60.002 37.6146 60.0425 37.6146 60.0829C37.855 61.741 38.5762 65.8659 39.73 69.91C41.2204 75.1673 40.1146 75.4099 39.5377 77.3915C39.105 78.8878 38.8165 81.1525 39.4415 82.3252C38.4319 81.6782 37.7588 81.3951 37.3742 81.2333C37.23 81.1525 37.0377 81.3142 37.1338 81.476C37.4704 82.123 38.3838 83.498 40.4031 84.7112C42.9993 86.248 47.182 86.8546 50.3551 87.4612C50.4031 87.4612 50.4512 87.4207 50.4031 87.3803C48.5762 86.6928 44.5377 85.3583 41.8454 83.8215C44.3935 84.9943 48.432 86.5311 49.7301 87.0163C49.8262 87.0568 49.9224 86.9759 49.8262 86.895C48.8166 86.0053 48.7685 85.884 47.7108 85.237C47.5666 85.1561 47.3743 85.0348 47.182 84.9539C47.9512 85.1156 48.7685 85.237 49.6339 85.4796C51.7974 86.0458 50.8839 88.27 60.3551 88.27C70.0667 88.27 69.5859 87.1377 71.2206 85.7627C71.2687 85.7222 71.2206 85.6414 71.1725 85.6818C69.1052 86.4502 64.5859 87.0972 62.8071 86.9759C60.9321 86.8546 60.6436 86.8546 58.3359 86.9355C56.0282 87.0163 52.7589 86.7737 51.7493 85.4392C50.6916 84.1451 52.7589 86.0862 52.0858 83.0127C51.6532 81.0716 52.9512 79.7775 52.6628 77.9981C52.5666 77.3915 51.0281 77.6746 50.9801 73.5901C50.932 71.285 52.0378 71.7298 51.8935 70.7997C51.7493 69.8695 50.6916 70.1526 50.2108 69.4247C49.3455 68.171 49.5858 66.4725 49.5858 65.0975C49.5858 63.1968 46.8454 63.9248 44.9704 61.6601C44.5377 61.1344 44.2973 60.6491 44.2493 60.1638C44.7781 61.6601 46.3166 62.5093 47.0377 62.8329C47.0858 62.8733 47.182 62.7924 47.0858 62.752C46.7012 62.4689 46.1723 61.9432 46.0281 61.4579C45.8839 61.0535 45.6916 60.5278 45.4512 59.9616C45.0666 59.1123 45.355 58.1418 45.5473 57.616C45.5954 57.4138 45.4993 57.2116 45.307 57.0903C44.5377 56.6455 43.8647 55.6749 43.9608 54.6639C43.9608 54.6639 44.0089 54.6234 44.0089 54.6639C44.8743 55.1492 45.7397 55.5131 46.605 55.7558C50.5955 56.7668 54.2974 55.4727 56.7013 54.7852C59.057 54.0977 59.5859 52.8036 59.3455 52.9249C59.1051 53.0867 57.182 54.0573 56.6532 54.2595C56.1724 54.4617 54.8743 54.9874 52.9512 55.1492C51.0762 55.3109 46.1243 55.6344 41.6531 51.7926C41.2204 51.4286 40.8358 51.0242 40.4512 50.5794C39.73 49.6088 39.1531 48.5978 39.0569 47.9912C38.8646 46.8184 38.3358 45.9692 38.0954 45.4839C38.0954 45.4839 38.0954 45.4434 38.1435 45.4434C38.5281 45.6052 39.2973 46.8184 39.3454 46.778C39.6819 45.2008 37.8069 44.5942 37.0377 43.5023C36.3165 42.4508 36.3165 41.1163 35.8838 39.9839C35.7877 39.7817 35.0665 38.892 34.3934 38.0428C33.8165 37.2744 33.4319 37.1127 33.7684 38.0024C33.8646 38.2854 33.9608 38.5685 34.105 38.8921C34.105 38.8921 34.105 38.9325 34.0569 38.8921C33.6723 38.6898 33.1915 38.4876 32.5184 38.1237C31.5569 37.6384 31.3646 38.4068 28.3838 38.8516C25.6915 39.0942 22.6145 38.9325 19.0568 37.9619C13.4318 36.4252 12.1818 32.5429 10.5952 32.0172C10.3068 31.9363 10.0183 32.0576 9.77792 32.1385C9.53753 32.2598 9.24907 32.3002 8.96061 32.3407C8.7683 32.3407 8.38368 32.3407 7.85483 31.8958C6.46059 30.7635 6.98944 26.1533 8.1433 23.1607C9.05676 20.7342 10.4991 18.3887 11.4125 16.9733C11.3645 17.6607 11.3645 18.2269 11.3645 18.6718C11.4125 19.1975 11.6529 19.5615 12.5664 17.9438C13.0952 17.0137 13.8645 15.5174 14.9222 13.1718C16.3645 10.0984 19.2972 6.98443 20.8838 5.44769C20.5953 6.21606 20.2588 7.06531 20.1626 7.46972C19.778 9.49175 19.9222 10.4623 20.1145 10.9072C20.1626 11.0285 20.3549 10.988 20.3549 10.8667V10.705C20.403 11.1903 20.6434 11.5947 21.3645 11.5947C21.4126 11.5947 21.4126 11.5947 21.4607 11.5947C21.4607 11.5947 21.5088 11.5947 21.5088 11.6351C20.0184 14.0211 18.0472 16.6497 16.9414 18.0247C16.4606 18.6313 17.278 18.2674 17.6626 17.9438C18.2395 17.499 18.6241 17.1755 18.7684 17.0946H18.8164C18.7684 17.499 18.528 20.6938 17.9991 21.7048C17.7107 22.2305 16.4126 23.282 15.5953 23.929C15.0664 24.293 14.5376 24.7378 14.0087 25.304C12.5183 26.9216 12.951 28.1349 12.2779 28.7415C11.8933 29.065 13.8645 29.5098 14.5376 29.065C15.0664 28.7415 15.5472 27.9731 15.7395 27.6496C16.076 27.1238 16.701 26.2746 17.8068 25.7084C18.0472 25.5871 17.6145 25.668 17.278 25.8297C16.3645 26.2341 16.6049 25.6275 17.0376 25.2636C18.2395 24.3334 18.4318 23.8886 22.0376 24.4952C27.3261 25.3445 29.6338 29.6312 30.2107 30.8848C30.3069 31.087 30.5473 31.2083 30.7876 31.1275C31.4607 30.8039 31.5569 30.1164 31.3165 29.2672C30.7877 27.4069 33.5281 26.0724 37.5665 27.2452C41.0281 28.2562 43.48 31.6936 43.3358 32.9068C43.3358 32.9473 43.2877 32.9473 43.2877 32.9473C42.7589 32.9473 42.0377 32.5833 41.605 32.5429C41.1242 32.5024 41.9416 32.9473 42.4704 33.2304C43.5762 33.7561 44.2493 34.8884 44.5377 35.495C44.5377 35.495 44.5377 35.5355 44.4897 35.5355C43.6723 35.2928 41.3166 34.2009 42.23 34.7267C42.7108 34.9693 44.1531 35.6972 45.2108 36.4252C46.2685 37.1531 48.2397 38.4068 50.3551 38.8921C52.4705 39.3369 54.682 40.1457 55.2589 40.2266C56.557 40.4288 56.9416 39.4987 56.9897 39.2965C56.9897 39.256 56.9897 39.256 57.0378 39.2156C57.2301 38.9325 57.182 38.609 57.134 38.4472C56.9897 38.1237 55.5955 35.5355 54.3455 32.5024C54.2012 32.1385 53.9128 31.451 53.8647 30.7635C53.8647 30.6422 53.8647 30.2378 53.8166 30.1164C54.8743 32.4216 56.1724 35.0098 56.9416 35.495C57.9032 36.1017 58.3359 34.7267 58.3359 34.1605C58.3359 33.6348 58.3359 32.4216 58.3359 32.1789C58.3359 32.1385 58.3359 32.1385 58.384 32.1385C58.6724 32.2194 60.4032 32.5024 61.7974 31.7341C63.7205 30.6826 64.0571 29.4694 64.1051 29.2268C64.1051 29.1863 64.1051 29.1863 64.1532 29.1459L64.7782 28.0944C64.7782 28.054 64.8263 28.054 64.8263 28.0135C65.2109 27.7709 65.5955 27.4474 66.0282 27.1238C66.0763 27.0834 66.1244 27.043 66.1725 27.0025H66.2205C66.0282 27.6496 65.7398 28.5797 65.6436 29.1863C65.4032 30.1973 65.3071 31.8149 65.6917 30.8848C65.9802 30.1973 66.509 27.8113 66.7494 26.6386C66.7494 26.5981 66.7494 26.5981 66.7975 26.5577C67.5186 26.0319 68.0475 25.7084 68.4802 25.4253H68.5282C68.5282 26.1128 68.4802 26.9621 68.4802 27.4878C68.4321 28.4988 69.2494 30.9253 69.4417 31.3701C69.7302 32.0576 70.836 32.7855 71.2686 32.5833C72.0379 32.2598 69.5379 29.9951 69.2494 29.0245C69.1533 28.6201 69.0571 27.6496 69.009 26.6386C69.2494 27.1238 69.7302 27.8113 70.7398 28.2562C72.4225 28.9841 73.4802 29.5098 74.3456 29.429C75.211 29.3481 75.5956 29.1459 74.8264 28.7819C74.6341 28.701 74.2014 28.4988 73.6725 28.2966V28.2562C74.1052 27.9327 74.4898 28.2562 75.9802 28.0944C77.9995 27.8922 79.4418 28.0135 79.9706 28.054C79.9706 28.054 80.0187 28.0944 79.9706 28.0944C77.5668 30.076 76.8937 32.7046 76.7014 33.4326C76.6052 33.7561 76.3648 33.9987 76.1244 34.1605C76.3648 33.837 76.6052 33.4326 76.7494 32.4216C76.7494 32.3811 76.7014 32.3811 76.7014 32.4216C76.2206 33.6752 75.4514 34.1201 74.9706 34.3223C74.7783 34.4031 74.6821 34.5649 74.634 34.7671C74.5379 35.0906 74.0571 35.5355 73.384 36.0612C72.9033 36.4252 72.3744 36.8296 71.7494 37.1935C70.2109 38.0024 67.9994 38.9325 67.0859 38.9729C64.9705 39.0943 60.0667 40.0244 61.2686 43.6236C61.2686 43.6236 61.3167 43.8258 61.1244 44.1089C61.0763 44.1898 61.0763 44.2706 61.1724 44.2302C61.6532 44.028 61.9417 43.9067 62.0859 44.028C62.134 44.0684 62.2301 44.0684 62.2782 44.028C62.3744 43.9067 62.4705 43.8662 62.6147 43.8662C62.8071 43.9067 62.9994 43.8662 62.9994 43.7449C62.9994 43.5832 62.9513 43.381 62.8071 43.2192C62.4224 42.8552 62.2301 40.9545 65.1148 39.9435C65.9802 39.6604 66.7494 39.5795 67.2302 39.5795C67.5186 39.5795 67.8071 39.5795 68.0956 39.4582C68.8648 39.2156 70.1629 38.6494 71.6052 38.0024C69.7302 39.2965 68.6244 40.4288 68.7686 40.3075C69.009 40.1457 69.9706 39.5391 69.7302 39.7817C69.4898 39.9839 68.0956 41.4398 68.4321 41.1972C68.8167 40.9545 71.7494 38.7707 74.4417 37.3958C77.8552 35.6164 79.3456 35.2928 79.9706 31.9767C80.4514 29.5503 83.8649 27.4069 86.5091 26.7194C89.3938 25.9915 90.7399 26.0724 91.6053 26.4768C91.6053 26.4768 91.6534 26.5172 91.6053 26.5172C91.1245 27.1643 90.8361 27.7709 90.7399 28.3371C90.5957 29.065 90.8361 29.1054 91.0284 28.5393C91.1245 28.2157 91.2207 27.8922 91.4611 27.5687C91.0764 28.5393 90.9803 29.8334 91.9899 30.8444C92.9515 31.8149 94.6342 32.5429 95.4034 32.826C95.4996 32.8664 95.6438 32.7451 95.5476 32.6642C95.2111 32.1789 94.6822 31.2083 94.5861 29.9951C94.538 28.6606 94.9707 27.0834 96.0284 25.9915C97.2303 24.6974 99.2496 24.1312 101.221 23.9695C103.961 23.7268 105.788 24.6165 106.75 25.5467C106.605 25.4253 106.077 25.0209 105.355 24.7378C104.73 24.4548 103.721 24.3334 102.855 24.2526C102.807 24.2526 102.807 24.293 102.855 24.293C104.298 24.6165 105.548 25.4253 106.509 26.3959C107.134 27.043 107.471 27.8113 108.144 28.4179C108.577 28.7819 109.682 29.3076 109.971 29.5098C109.346 28.9032 110.307 28.0944 107.615 25.1827C107.327 24.8592 106.99 24.5761 106.653 24.293C105.98 23.7673 105.596 22.8371 105.259 22.1497C104.971 21.4622 104.346 20.4107 104.49 19.6423C104.682 18.7122 105.596 19.0357 106.269 19.3592C106.413 19.4401 106.605 19.3592 106.557 19.1975C106.365 18.7526 105.932 18.2674 105.692 17.9438C104.202 15.8814 103.096 13.5358 102.327 12.2821C102.327 12.2417 102.278 12.2417 102.278 12.2013C101.798 11.352 101.365 10.6645 101.076 10.3006C100.163 9.08734 99.2015 8.23809 98.913 8.15721C98.6246 8.07633 98.1919 7.79324 97.9515 7.38884C97.8553 7.10575 97.7111 6.62047 97.8553 6.09474C97.9034 5.93298 97.7111 5.73077 97.5188 5.77121C97.038 5.93298 96.6534 6.0543 96.3649 6.09474C96.0765 6.13518 95.8842 6.29694 95.7399 6.49915C95.4515 6.82267 94.9707 7.06531 94.0572 7.10575C92.5188 7.18664 92.7111 7.14619 92.2784 7.3484C92.0861 7.46972 91.7495 7.5506 91.5091 7.5506C91.2688 7.59104 91.0765 7.7528 91.0284 7.95501C90.9803 8.27853 90.9322 8.76382 90.8841 9.12778C90.8841 9.16822 90.8841 9.2491 90.8841 9.28954C90.8841 9.41087 91.1245 9.16822 91.1245 9.08734V9.0469C91.1245 9.00646 91.1245 9.00646 91.1726 8.96602L91.6053 8.48073C91.6053 8.44029 91.6534 8.44029 91.7015 8.44029H92.1341C92.1822 8.44029 92.1822 8.44029 92.2303 8.48073C92.3265 8.56161 92.5188 8.80426 92.5188 9.20866C92.5188 9.85571 91.9899 9.69395 91.2207 10.0579C90.4514 10.4623 88.7207 11.3925 88.3841 10.4623C88.3361 10.0579 88.3361 9.45131 88.3841 8.48073C88.5284 6.90355 88.3361 5.8521 88.7207 5.48813C88.7207 5.48813 88.7687 5.44769 88.8168 5.44769L89.7303 5.08372C89.8745 5.04328 89.8264 4.88152 89.6822 4.84108C89.2014 4.7602 88.8168 4.63888 88.6245 4.51756C88.1918 4.19403 87.9034 3.78963 87.3745 3.6683C86.8937 3.54698 86.7976 3.95139 86.2687 3.78963C85.6918 3.62786 85.788 3.0617 85.211 2.89993C84.586 2.73817 84.538 3.22346 84.1053 3.10214C83.6245 2.98081 83.913 2.29332 83.1918 2.01024C82.2783 1.68672 82.0379 2.29332 82.0379 2.45509C81.9899 2.33377 81.8937 1.92936 81.9418 1.68672C81.9899 1.48451 82.1341 1.36319 82.4226 1.24187C82.8072 1.12055 83.4322 0.958784 84.3456 0.797022C84.538 0.756582 84.7303 0.756583 84.9706 0.716142C87.5668 0.433058 95.6919 0.433058 97.615 1.12055C98.7207 1.52495 99.3938 2.05068 99.7784 2.49553C100.067 2.81905 100.355 2.89993 100.211 2.65729C100.163 2.57641 100.115 2.45509 100.067 2.33377C101.028 2.98081 102.711 4.15359 103.288 4.84108C103.769 5.44769 108.721 11.7564 111.99 15.9622C115.019 20.3298 115.307 21.3408 116.509 24.5356C116.509 24.6165 116.557 24.657 116.605 24.6974C116.654 24.7378 116.702 24.6974 116.654 24.657C116.461 24.2526 116.413 23.1607 117.038 23.2011C118 23.2415 118.625 25.7084 118.769 26.2341C119.298 27.8113 119.394 29.5503 119.394 30.3186C119.394 31.6532 118.913 32.1385 118.144 32.5833C117.471 32.9473 116.365 33.3517 115.836 32.9068C115.644 32.7451 115.5 32.4216 115.211 32.5024C115.067 32.5429 114.827 32.6238 114.538 32.8664C114.153 33.1899 114.057 33.8774 113.721 34.2414C112.519 35.495 110.788 35.3333 109.202 35.859C108.432 36.1017 107.711 36.6678 106.942 36.9913C105.019 37.8002 103.048 38.4876 100.98 38.8921C100.067 39.0538 100.307 39.2965 101.028 39.256C102.567 39.1347 104.442 38.4876 105.067 38.2854C105.692 38.0832 105.596 38.2854 104.634 38.6494C103.577 39.0538 101.942 39.4987 99.4419 39.7817C94.8265 40.3075 92.1342 38.4876 91.3168 38.4068C89.4418 38.1641 88.1437 39.3369 88.8168 38.4472C89.2976 37.8406 90.2591 36.6274 87.9034 38.1237C86.2207 39.1751 85.9803 40.4692 85.2591 41.5611C83.7687 43.8258 81.8937 44.9177 81.9418 45.3221C81.9418 45.3625 82.7591 44.8773 83.1437 44.7964C83.1437 44.7964 83.1918 44.7964 83.1918 44.8368C82.9033 45.3625 81.5091 46.8184 81.3168 47.9912C81.1725 49.0831 80.3072 51.0647 79.5379 52.0757C79.3937 52.2779 79.4418 52.5205 79.2975 52.7227C79.0572 53.1676 78.1437 53.8146 77.2302 54.2595C76.1244 54.7852 75.5475 55.3514 75.9802 55.1087C76.7014 54.7043 78.0475 54.4617 79.5379 53.4911C81.3649 52.3183 81.7014 49.6088 82.4226 47.9103C82.9514 46.6566 84.4899 46.05 84.8264 44.7155C84.8745 44.8368 84.9226 45.2817 84.586 46.6162C84.2014 48.2338 84.586 50.3367 85.5957 50.4985C86.2207 50.6198 86.9418 49.3257 87.663 47.9507C87.4707 49.2853 86.461 52.8036 84.4418 55.6749C83.4322 57.1308 82.086 57.5352 81.5572 59.1932C80.7399 61.7814 78.9129 62.0645 78.4321 63.0755C78.3841 63.1564 78.5283 63.2373 78.6245 63.1564C80.3552 61.741 79.7302 64.2483 78.6245 66.4725C78.5764 66.5534 78.6725 66.5938 78.7206 66.513C79.3456 65.8255 80.211 64.2887 80.8841 62.9946H80.9322C81.7976 64.7336 80.6437 67.6049 80.2591 69.3438C79.8264 71.1636 78.0475 72.6599 77.8552 74.5606C77.6629 76.5018 78.7687 78.4429 78.6725 80.3841C78.5283 83.5384 74.5379 84.1855 72.6148 85.3178C71.5571 85.9649 71.509 86.0862 70.4994 86.9759C70.4513 87.0163 70.4994 87.1377 70.5956 87.0972C71.9417 86.6119 76.2206 84.9539 78.7687 83.7811C76.0764 85.8436 71.8937 86.7333 69.9225 87.3803C69.8744 87.3803 69.9225 87.4612 69.9706 87.4612C73.1917 86.8546 77.3264 86.248 79.9225 84.7112C81.9418 83.498 82.8553 82.123 83.1918 81.476C83.2879 81.3142 83.0956 81.1929 82.9514 81.2333C82.5668 81.3547 81.8937 81.6377 81.0283 82.1635C81.5091 80.9503 81.2206 78.8473 80.836 77.4724C80.2591 75.4908 79.1533 75.2481 80.6437 69.9909C81.4129 67.2813 81.7976 65.0167 82.3745 62.5498C82.8553 60.2447 83.6726 59.0719 83.7206 58.991C84.2014 58.3844 84.8745 57.4947 85.7399 56.1197C87.4226 53.4507 88.4803 49.2448 89.0572 46.3331C89.0572 46.2927 89.0572 46.2927 89.1053 46.2522C90.5476 44.6751 91.8938 42.5721 92.0861 42.2486C92.0861 42.2082 92.1341 42.2082 92.1822 42.2082C93.4322 42.0464 95.0669 42.2082 97.8073 41.8847C103.288 41.2376 109.057 38.8921 112.182 36.87C115.355 34.848 116.75 34.0392 118 33.5539C120.115 32.8664 120.452 31.9767 120.355 31.3701C120.259 31.1275 120.067 30.6422 119.923 29.9547ZM49.5378 10.8667C49.5378 11.1498 49.6339 12.9292 49.7301 13.7784C49.7301 13.7784 49.7301 13.7784 49.682 13.7784L49.3454 13.374C49.3454 13.3336 49.2974 13.3336 49.2974 13.2932L49.5378 10.8667ZM48.6243 16.2453C48.3358 16.3666 48.2878 16.6902 48.1435 17.0946C48.0474 17.499 48.0474 18.2269 48.3839 18.3078C48.4801 18.3078 48.5281 18.3078 48.5762 18.3078C48.5281 18.3482 48.5281 18.4291 48.4801 18.4696C48.1916 18.6718 47.7589 18.4291 47.7589 17.7821C47.7589 17.4181 47.807 17.2563 47.6147 17.1755C47.5185 17.135 47.4224 17.0137 47.3743 16.9328C47.3262 16.8519 47.182 16.8519 47.182 16.9733C47.182 17.0946 47.182 17.2159 47.23 17.3777C47.23 17.4181 47.23 17.4181 47.23 17.4585C47.0858 17.1755 46.9897 16.8924 46.9897 16.5688C46.8454 15.5174 47.3743 14.4255 47.4224 14.3446C47.6147 14.0211 47.9512 13.8189 48.6243 14.4255V14.4659C48.3358 14.4255 48.1916 14.5468 48.5281 14.9108C48.8647 15.2343 49.0089 15.5174 48.9608 15.7196C48.9608 15.7196 48.9128 15.76 48.9128 15.7196C48.6724 15.4365 47.9512 14.4255 47.6147 14.6681C47.2781 14.9108 47.2781 15.5578 47.4224 15.6387C47.5185 15.7196 47.4224 15.8814 47.3743 16.0836C47.3262 16.1644 47.4704 16.2049 47.5185 16.124C47.7108 15.9622 47.9993 15.8409 47.9993 15.5983C47.9993 15.2343 48.5281 15.7196 48.6724 16.2453C48.6243 16.2049 48.6243 16.2049 48.6243 16.2453ZM49.9705 19.7637C49.7781 20.0467 49.8262 20.6533 49.3454 20.6129C49.1531 20.6129 49.0089 20.4916 48.8647 20.2894C48.9128 20.3298 49.0089 20.3703 49.1051 20.4107C49.2974 20.4511 49.057 20.0063 48.9608 19.8041C48.7204 19.1166 49.5378 19.2784 49.4416 18.8335C49.3935 18.5909 49.1051 18.3482 49.6339 17.8225H49.682C49.7301 17.9843 49.8262 18.1056 49.8743 18.2674C49.8743 18.3078 49.8743 18.3078 49.8743 18.3482C49.9224 18.7526 49.9704 19.1975 50.0185 19.6828C49.9704 19.7232 49.9705 19.7232 49.9705 19.7637ZM29.3453 5.85209C29.4896 5.52857 29.5857 5.12417 29.9703 5.08372C30.6915 4.9624 31.4127 4.84108 31.653 4.63888C32.0857 4.31535 32.3742 3.91095 32.903 3.78963C33.3838 3.6683 33.48 4.07271 34.0088 3.91095C34.5857 3.74918 34.4896 3.18302 35.0665 3.02125C35.6915 2.85949 35.7396 3.34478 36.1723 3.22346C36.6531 3.10214 36.3646 2.41465 37.0858 2.13156C37.855 1.88892 38.1435 2.25288 38.2396 2.49553C38.7204 4.11315 38.8165 8.23809 38.8646 8.76382C38.9127 9.37043 38.7685 9.65351 38.0473 9.77483C37.4704 9.89615 37.1819 9.69395 37.0858 9.2491C36.9896 7.95501 36.605 5.89254 36.9896 5.60945C37.23 5.40725 36.7492 5.04328 36.5569 5.44769C36.4608 5.64989 36.8454 9.08734 36.8935 9.69395C36.9415 10.3006 36.7973 10.5836 36.0761 10.705C35.355 10.8667 34.7781 10.5432 34.6338 9.81527C34.4896 8.60206 34.105 6.82267 34.4415 6.53959C34.6819 6.33738 34.2011 5.97342 34.0088 6.37782C33.9127 6.58003 34.4415 9.77483 34.4896 10.3814C34.5377 10.9881 34.3934 11.2711 33.6723 11.3925C33.0473 11.5138 32.7107 11.3925 32.3742 10.9881C32.3742 10.9476 32.3261 10.9476 32.3742 10.9072C32.4223 10.0175 31.5569 7.7528 32.0377 7.42928C32.278 7.26752 31.7973 6.86311 31.605 7.26752C31.5088 7.46972 32.1819 9.97704 32.1819 10.5836C32.1819 11.1903 32.0377 11.4733 31.3165 11.5947C30.5953 11.716 30.403 11.5947 30.2107 11.0285C30.1626 10.7858 30.1627 10.5028 30.1146 10.1388C29.8742 9.16822 30.0184 9.00646 29.5857 7.79324C29.153 6.86311 29.153 6.37782 29.3453 5.85209ZM41.7973 66.7152C41.7973 66.7152 41.8454 66.7556 41.8454 66.7961C42.23 67.8879 42.5666 68.899 42.5666 69.5864C42.6146 71.8916 43.2396 73.5496 42.9031 77.2702C42.6146 80.3436 41.6531 81.1929 42.8069 82.8105C42.1339 82.2039 41.605 81.4355 41.5569 80.3436C41.4608 78.4025 42.23 76.5018 42.23 74.5606C42.23 72.7004 41.1242 71.3254 40.5954 69.6269C39.9704 67.6857 39.5377 65.6233 39.3935 63.6417C39.9223 64.6931 40.6916 65.8659 41.7973 66.7152ZM40.4512 60.2042C40.4992 60.2042 40.4992 60.2447 40.4992 60.2447C40.5473 60.6086 40.7396 61.0131 40.98 61.4579C40.98 61.4983 40.98 61.4983 40.98 61.5388C40.9319 61.7005 40.8839 61.9027 40.8839 62.1049H40.8358C40.1627 61.5792 39.2973 60.9322 38.7685 59.4763V59.4359C39.3454 59.7594 39.8742 60.002 40.4512 60.2042ZM39.4896 56.605C39.5377 56.605 39.5377 56.6455 39.5377 56.6859C39.6819 57.0903 39.8742 57.5352 40.0665 57.98C39.1531 57.4138 38.3358 56.6859 37.855 55.3918C37.855 55.3918 37.855 55.3514 37.9031 55.3918C38.2877 55.594 38.7685 56.1602 39.4896 56.605ZM36.7011 49.9323C37.1338 50.0537 37.6146 50.2963 37.8069 50.5794C38.0473 50.9029 38.3358 51.2264 38.6242 51.55C38.6242 51.5904 38.6723 51.5904 38.6723 51.6308C38.6723 52.1161 38.7204 52.7227 38.8165 53.3698C38.8165 53.3698 38.8165 53.3698 38.7685 53.3698C38.0473 52.561 37.5185 51.5904 36.8935 50.3772C36.7973 50.2559 36.7011 50.0941 36.7011 49.9323C36.6531 49.9323 36.6531 49.9323 36.7011 49.9323ZM2.18172 32.6642C1.50864 32.3002 0.835562 32.0172 1.1721 31.1275C1.1721 31.087 1.1721 31.087 1.22018 31.0466C1.41249 30.7635 2.6625 28.8628 4.39328 26.315C3.57596 31.3701 4.3452 33.837 2.18172 32.6642ZM7.37406 34.1201C11.1241 36.1421 15.451 38.3663 20.8838 39.4987C21.3645 39.5795 21.3164 39.7817 20.8357 39.7817C16.653 39.8626 12.951 37.6788 11.8452 36.9509C11.6049 36.7891 11.3645 36.6678 11.076 36.6274C9.20099 36.1825 6.55675 35.212 5.97982 34.2414C5.73944 33.837 6.41252 33.5539 7.37406 34.1201ZM9.00869 15.4365C6.31636 18.6718 4.53751 22.5136 3.14327 25.7084C2.18172 27.8518 1.50864 29.065 0.931717 29.9142H0.88364C0.931717 28.8628 1.07595 27.2452 1.26826 26.7194C1.55672 26.0319 3.81635 21.5835 5.64328 19.3997C7.27791 17.499 14.4895 8.15721 16.5568 5.56901C14.4895 8.31897 11.0279 13.0101 9.00869 15.4365ZM21.9415 2.81905C22.1818 3.99183 22.2299 4.92196 23.5761 5.56901C24.5857 6.0543 26.1722 6.70135 26.8934 6.98443C27.1338 7.06531 27.3742 7.02487 27.5184 6.86311H27.5665C27.5665 7.22707 27.2299 8.8447 27.9511 9.73439C27.9511 9.77483 27.9511 9.77483 27.9511 9.81527L27.8069 9.97704C27.8069 9.97704 27.7588 10.0175 27.7107 9.97704C27.7107 9.97704 27.6626 9.97703 27.6626 9.93659C27.5184 9.73439 27.4223 9.53219 27.3261 9.28954C27.1338 8.92558 26.9896 8.23809 27.0376 7.83368C27.0376 7.7528 26.9415 7.7528 26.8934 7.7528C26.7492 7.79324 26.653 7.63148 26.4607 7.59104C25.9319 7.46972 24.5857 7.10575 23.6722 6.37782C22.5665 5.44769 21.7011 5.48813 21.9415 2.81905ZM71.6052 14.7895C71.9417 14.4255 71.7975 14.3042 71.509 14.3446C71.509 14.3446 71.461 14.3446 71.509 14.3042C72.2302 13.6167 72.5667 13.9402 72.759 14.3446C72.759 14.3446 73.2879 15.6792 73.1437 16.4475C72.9994 17.2159 72.6148 17.8225 72.1821 18.5504C72.0379 18.8335 71.8936 19.157 71.7494 19.4806C71.6533 19.6423 71.6533 19.8445 71.461 19.9659C71.4129 20.0063 71.3648 19.9659 71.3167 19.7637C71.3167 19.7232 71.3167 19.6423 71.3167 19.6019C71.3167 19.521 71.1725 19.6828 71.1725 19.7637C71.1725 20.3298 70.836 20.6129 70.5956 20.532C70.4513 20.4511 70.4033 20.3298 70.3552 20.1681C70.3552 20.1276 70.3552 20.1276 70.3552 20.0872C70.4994 19.2379 70.6436 18.4696 70.6917 17.8629C70.6917 17.8629 70.6917 17.8629 70.7398 17.8629C70.836 18.0247 70.836 18.1865 70.9802 18.0652C71.2206 17.8629 70.9321 17.135 70.9802 17.135C71.0283 17.135 71.1244 17.135 71.2686 17.5394C71.3648 17.9438 71.3648 18.2269 71.7013 18.1865C72.086 18.1056 72.086 17.4181 71.9417 16.9733C71.8456 16.5688 71.7494 16.2453 71.461 16.124C71.4129 16.124 71.4129 16.0836 71.4129 16.0836C71.5571 15.5174 72.086 15.0725 72.086 15.4365C72.086 15.6387 72.2302 15.8409 72.4225 16.0027C72.5187 16.0836 72.6629 16.0431 72.6148 15.9218C72.5187 15.7196 72.3744 15.477 72.4706 15.4365C72.6148 15.3556 72.759 14.749 72.4225 14.5064C72.086 14.2637 71.3648 15.2747 71.1725 15.5578H71.1244C71.1244 15.3961 71.3167 15.1534 71.6052 14.7895ZM70.7398 6.82267C71.1725 7.22708 71.4129 7.51016 71.509 7.59104C71.509 7.63148 71.5571 7.63148 71.5571 7.67192C71.6052 7.87412 71.7013 8.88514 71.5571 10.7454C71.4129 12.2417 70.884 12.8079 70.5956 13.0101H70.5475C70.5475 12.8888 70.4994 12.7674 70.4994 12.6461C70.4994 12.6057 70.4994 12.6057 70.4994 12.5652C70.836 11.9991 70.9802 11.1903 71.0283 10.6241C71.0283 10.5836 70.9802 10.5836 70.9321 10.6241C70.836 10.9476 70.6917 11.5138 70.3552 12.0395H70.3071V11.9991C70.3071 11.9586 70.3071 11.9586 70.3071 11.9182C70.5956 11.3116 70.7398 10.4623 70.7398 9.89615C70.7398 9.85571 70.6436 9.81527 70.6436 9.89615C70.5475 10.1792 70.4033 10.5836 70.1148 11.0689H70.0667C69.8263 8.92558 70.5956 7.99545 70.7398 6.82267ZM68.9129 5.04328C68.9129 5.00284 68.9129 5.00284 68.9129 5.04328C69.3456 5.40725 69.7302 5.77121 70.0667 6.09474C70.0667 6.09474 70.0667 6.13518 70.0667 6.17562C69.6821 6.62047 69.2013 7.02487 68.8167 7.30796H68.7686C68.7686 7.26752 68.7686 7.22708 68.7686 7.22708C68.6244 6.49915 68.7686 5.69033 68.9129 5.04328ZM69.5859 7.95501C69.2494 8.72338 69.009 9.12778 68.8167 9.45131V9.41087C68.9129 9.08734 69.0571 8.76382 69.2013 8.48073C69.3456 8.31897 69.4417 8.11677 69.5859 7.95501ZM56.5089 7.38884C58.9128 5.8521 61.7494 4.11315 62.7109 3.50654C62.9513 3.38522 63.0475 3.14258 63.0475 2.89993V2.73817C63.0475 2.69773 63.0474 2.69773 63.0955 2.69773C63.2878 2.65729 64.1051 2.45509 64.8263 2.09112C64.8744 2.09112 64.8744 2.09112 64.9225 2.09112C65.6917 2.49553 66.4609 2.98081 67.1821 3.54698V3.58742C66.8936 3.95139 66.3648 4.558 65.9802 5.12416C65.4513 5.97342 63.5282 7.5506 62.9513 8.03589C63.0475 7.87412 63.1436 7.71236 63.1917 7.5506C63.2398 7.46972 63.0955 7.38884 63.0475 7.42928C62.9032 7.5506 62.7109 7.67192 62.7109 7.67192C62.7109 7.67192 62.9994 7.18663 63.2398 6.82267C63.2878 6.74179 63.1917 6.66091 63.0955 6.70135C62.8071 6.86311 62.5186 7.10575 62.3263 7.26752C62.5667 6.90355 63.2398 6.17562 63.7686 5.73077C63.8167 5.69033 63.7686 5.64989 63.7205 5.69033C63.0474 6.0543 61.9417 6.62047 61.509 6.94399C61.7494 6.70135 61.9417 6.49915 62.0859 6.37782C62.134 6.33738 62.0378 6.2565 61.9898 6.29694L61.5571 6.58003L61.7494 6.21606C61.7974 6.17562 61.7013 6.13518 61.6532 6.17562C61.509 6.33738 61.3167 6.53958 61.1724 6.66091C61.2686 6.49914 61.4128 6.2565 61.5571 6.0543C61.5571 6.01386 61.6051 6.01386 61.6051 5.97342C62.134 5.56901 62.4705 5.16461 62.6628 4.92196C62.759 4.84108 62.6148 4.71976 62.4705 4.7602C61.3167 5.12417 58.7686 6.17562 56.5089 7.38884ZM51.557 25.7893C51.7974 28.4179 50.932 30.8039 49.4897 32.1385C50.7397 29.8738 51.3166 27.5282 51.557 25.7893ZM42.6627 29.1459C42.855 29.429 43.0954 29.712 43.3358 29.9951C42.9993 29.7929 42.7108 29.5907 42.4704 29.3481C42.1339 28.9841 41.7973 28.6606 41.3646 28.3371H41.4127C41.7012 28.4179 41.9896 28.4179 42.2781 28.3371C43.0473 28.1753 44.7781 27.8518 46.8935 28.1349C45.4512 28.0944 44.105 28.2966 42.9031 28.6606C42.6146 28.7415 42.5185 28.9841 42.6627 29.1459ZM52.807 38.6898C51.9897 38.4876 51.2685 38.2854 50.8358 38.0832C49.2012 37.3149 46.7974 36.9105 46.0281 36.1421C45.355 35.5355 45.1147 35.212 45.0666 35.1311C45.2108 35.2524 45.7877 35.7781 46.7012 36.0208C46.7974 36.0612 46.8935 35.9399 46.7974 35.859C45.98 35.1715 45.2589 34.2818 45.4031 33.0686C45.8358 34.8076 47.4224 36.87 52.182 37.8002C52.2301 37.8002 52.2301 37.8406 52.2782 37.8406C52.4224 38.1237 52.6147 38.4068 52.807 38.6898ZM66.0763 26.2746C66.0282 26.2746 66.0282 26.2746 66.0763 26.2746C66.0763 25.8702 66.2686 25.2636 66.4609 24.8187C66.4609 24.7783 66.4129 24.7378 66.4129 24.7783C66.2205 25.0209 66.0282 25.3849 65.8359 25.9511C65.5475 26.8812 64.634 27.7709 63.4801 28.4584C62.6628 28.8223 61.5571 29.065 60.1628 29.065C55.932 29.065 54.8262 26.8408 54.2493 26.3555C53.7205 25.8702 52.3743 25.0614 51.6532 23.6055C51.2205 22.6754 51.1243 21.1791 51.1243 20.1276C51.1243 20.1276 51.1243 20.1276 51.1724 20.1276C52.4705 21.907 52.0378 22.4732 52.4705 23.5246C52.8551 24.4548 53.3839 25.1423 53.9609 25.7893C54.0089 25.8702 54.1051 25.7893 54.1051 25.7084C54.0089 25.1827 54.1051 24.6974 54.1532 24.5356C54.2012 24.8592 54.7301 26.8408 56.7974 27.8518C58.7686 28.8628 60.9801 28.4179 61.8455 28.1753C61.9417 28.1349 61.9417 28.0135 61.7974 28.0135C61.7013 28.0135 61.5571 28.0135 61.3647 28.054C60.884 28.0944 60.5474 27.9731 60.259 27.9731C59.9705 27.9731 59.682 28.054 59.3936 28.054C58.6724 28.054 57.6628 27.4878 57.4224 27.1643C56.8455 26.2746 58.2878 26.2746 59.009 26.2746C60.4513 26.2746 62.2301 26.315 62.3263 26.0724C62.3744 25.9106 61.9898 25.3849 62.2301 25.0209C62.5186 24.4952 62.3744 24.4952 62.4705 24.1312C62.5186 24.0099 62.3744 23.929 62.2301 24.0099C60.5955 24.8996 58.1917 24.4548 57.6628 23.6864C57.759 23.7673 57.8551 23.8482 57.9513 23.8886C57.9993 23.929 58.0474 23.8886 58.0474 23.8077C57.9993 23.646 58.1917 23.4842 58.8647 23.3629C59.2974 23.4437 59.7301 23.5651 60.0667 23.5651C60.6436 23.5651 61.3647 23.2415 62.134 23.3224C63.1917 23.4033 63.7205 23.1607 63.8648 23.0798H63.9128C64.009 23.2415 64.0571 23.5651 64.2013 23.4842C64.3936 23.3629 64.3936 22.9585 64.2975 22.7967C64.2494 22.6349 63.9128 22.4327 63.7686 22.3923C63.6244 22.3923 63.6725 22.5541 63.7205 22.6349C63.7686 22.7158 63.6725 22.7967 63.6244 22.8371C63.2878 22.9989 62.6147 23.0798 61.8936 22.8776C60.6917 22.5541 60.4994 22.7158 60.0186 22.7158C59.5378 22.7158 59.3455 22.5136 58.1436 22.8776C57.3263 23.1202 56.6532 23.0798 56.4128 22.8371C56.4128 22.8371 56.4128 22.8371 56.4128 22.7967C56.3166 22.6349 56.3166 22.3519 56.1724 22.4327C56.0282 22.5136 55.8359 22.6754 55.7878 22.7967C55.6916 22.9585 55.6916 23.4033 55.8839 23.4842C56.0763 23.5651 56.0763 23.2415 56.1724 23.0798H56.2205C56.2205 23.0798 56.2686 23.1202 56.3166 23.1607C56.3647 23.1607 56.3647 23.2011 56.3647 23.2415C56.4128 23.3224 56.4609 23.4033 56.4609 23.5246C56.5089 24.0908 57.2301 24.8996 57.6147 25.0614C57.3263 24.9805 57.1339 24.8996 56.9897 24.7783C56.8936 24.6974 56.7493 24.7783 56.7493 24.8592C56.7974 25.1423 56.7493 25.5062 56.557 25.7489C56.557 25.7893 56.5089 25.7893 56.4609 25.7489C55.5474 25.3849 55.2589 24.1717 55.0186 23.4437C55.0186 23.4033 54.9224 23.4033 54.9224 23.4437C54.8743 23.8077 54.7782 24.2121 54.7782 24.3334C54.7782 24.3334 54.7301 24.3739 54.7301 24.3334C54.2974 23.929 53.2878 22.4732 53.0474 21.26C53.2397 21.7452 54.3935 22.8776 54.4416 22.7158C54.4897 22.5541 53.9128 21.7857 53.4801 21.0578C53.0474 20.3298 53.0474 19.6019 52.9512 19.5615C52.4705 19.3188 51.4608 18.9548 51.3166 16.4475C51.3166 16.2453 51.1243 16.124 50.9801 15.9622C50.932 15.9218 50.932 15.8409 50.8839 15.7196C50.8839 15.4365 51.1243 13.6167 50.932 13.1718C50.8839 13.0101 50.7878 12.7674 50.7397 12.5248C50.7397 12.4844 50.7397 12.4844 50.7397 12.4439C50.7878 12.363 50.8358 12.3226 50.8839 12.2417H50.932C51.1243 12.8483 51.3166 13.374 51.3166 13.6571C51.3166 13.9402 51.3166 14.1829 51.3166 14.3851C51.3166 14.6277 51.3647 14.8703 51.5089 15.0725C51.557 15.113 51.557 15.1534 51.6051 15.1939C51.7493 15.3961 51.9897 15.5174 52.2782 15.4365C52.3262 15.4365 52.3262 15.4365 52.3743 15.4365H52.4224C52.4224 15.5174 52.4705 15.6387 52.6147 15.6387C52.7109 15.6387 52.8551 15.6792 52.9032 15.6792C52.9032 15.7196 52.9032 15.76 52.9512 15.8005C53.0955 15.9218 53.4801 16.1644 54.3455 16.2049C54.7782 16.2049 55.0186 16.1644 55.2109 16.124C55.3551 16.0836 55.2589 15.9218 55.1147 15.9218C54.2974 15.9622 53.8647 15.8409 53.3839 15.5578V15.5174C53.4801 15.477 53.6243 15.3961 53.8166 15.3556C53.8647 15.3556 53.8647 15.3556 53.8647 15.3961C53.8647 15.3961 53.8647 15.3961 53.8647 15.4365C53.9609 15.6792 54.2974 15.76 54.5859 15.8005C54.682 15.8005 54.7301 15.8005 54.8262 15.8005C55.1147 15.8005 55.4512 15.7196 55.5474 15.5174C55.5955 15.477 55.5955 15.3961 55.6436 15.3152C55.6436 15.2748 55.6916 15.2748 55.6916 15.2748C56.0282 15.3152 56.2205 15.3556 56.2686 15.4365C56.3166 15.5174 56.2686 15.6387 56.1243 15.7196C56.0282 15.8005 56.0763 15.9218 56.1724 15.9218C56.4609 15.8814 56.7974 15.76 56.9897 15.5578C57.0378 15.5174 56.9897 15.4365 56.9416 15.3556C57.2301 15.5174 57.3743 15.6387 57.3743 15.76C57.4224 15.9218 56.8936 16.1644 56.5089 16.3262C56.3647 16.3666 56.1724 16.6497 56.3647 16.6093C56.7974 16.5284 57.182 16.4071 57.4705 16.2858C57.2301 16.488 56.8455 16.6093 56.6051 16.6902C56.5089 16.7306 56.4128 16.8519 56.5089 16.8924C56.7493 17.0137 57.2301 17.0137 57.5666 16.9328C57.5666 16.9328 57.6147 16.9328 57.6147 16.9733C57.3743 17.6607 57.4224 18.3887 57.4705 18.5504C57.4705 18.5909 57.4705 18.5909 57.4224 18.6313L56.9897 18.9953C56.7974 19.1166 56.5089 19.2784 56.2686 19.3592C56.0282 19.4401 55.7878 19.6019 55.6916 19.8445C55.5955 20.0872 55.4512 20.3298 55.307 20.4916C55.1628 20.6938 55.1147 20.9364 55.1147 21.2195V21.3813C55.1147 21.4622 55.2109 21.4622 55.2589 21.3813C55.4032 21.0578 55.7397 20.5725 56.3647 20.3298C56.4128 20.3298 56.4128 20.3298 56.4128 20.3703C56.5089 20.532 56.6051 20.7342 56.7974 20.896C56.9416 21.0578 57.182 21.0173 57.3743 21.0173C57.4224 21.0173 57.4224 21.0173 57.4705 21.0578C57.5186 21.0578 57.5186 21.0578 57.5666 21.0982C57.5666 21.1386 57.5666 21.1386 57.5186 21.1791C57.3263 21.26 57.134 21.4622 56.9416 21.5835C56.8455 21.7048 56.8936 21.8666 57.0859 21.8666C57.6147 21.8666 58.432 21.7857 58.9128 21.543H58.9609L59.009 21.5835C59.1051 21.7048 59.2974 21.7048 59.3936 21.5835C59.4897 21.4622 59.5859 21.3813 59.7301 21.3004C59.7301 21.3813 59.8263 21.4217 59.9224 21.4622C60.1628 21.5026 60.307 21.5835 60.4513 21.5835C60.6436 21.5835 60.6917 20.9769 61.509 20.7342C61.5571 20.7342 61.5571 20.7342 61.6051 20.7342C62.8071 20.6938 62.5667 20.4107 62.2301 20.3703C61.8936 20.3298 61.509 20.3298 61.2686 20.4511H61.2205C61.0763 20.2894 60.7878 20.3298 60.5955 20.4511C60.3551 20.5725 60.2109 20.4916 59.9705 20.4916C59.9224 20.4916 59.9224 20.4916 59.8744 20.4916C59.5859 20.4916 59.634 20.3703 59.4417 19.9659C59.3455 19.7637 58.9128 19.3188 59.009 19.0357C59.009 18.9548 59.1051 18.874 59.2013 18.5909C59.2974 18.3078 59.3455 17.9843 59.2013 17.2563C59.057 16.5284 59.4897 16.124 59.4897 15.76C59.4897 15.1939 59.2494 15.1534 59.3455 14.9917C59.3936 14.8703 59.3936 14.749 59.3455 14.6277C59.3455 14.5468 59.2493 14.5064 59.1532 14.5468C59.1051 14.5873 59.009 14.6681 58.9128 14.749C58.9609 14.6277 58.9609 14.5064 59.009 14.4255C59.009 14.3446 58.9128 14.3446 58.8647 14.3851C58.7686 14.5064 58.6724 14.5873 58.5763 14.6277C58.6243 14.5873 58.7205 14.5064 58.7686 14.4255C58.8167 14.3851 58.7205 14.3446 58.6243 14.3851C58.432 14.4659 58.1436 14.4659 57.6147 14.1829C57.4705 14.102 57.4224 14.0211 57.4705 13.9807C57.5186 13.8998 57.4705 13.7785 57.3743 13.8189C57.3263 13.8189 57.3263 13.8189 57.2782 13.8189C56.8936 13.5358 56.5089 13.4145 56.2205 13.3336C56.1243 13.3336 56.1243 13.4145 56.1724 13.4549C56.3647 13.5358 56.5089 13.6571 56.4609 13.738C56.4609 13.7784 56.4128 13.738 56.3647 13.738C55.5955 13.374 53.6724 13.4954 53.4801 13.5358C53.2878 13.5762 53.2397 13.7784 52.7589 13.9807H52.7108C52.7108 13.8998 52.7108 13.8189 52.7108 13.738C52.7108 13.6976 52.7108 13.6976 52.7108 13.6571C52.8551 13.1314 53.4801 11.8777 53.3359 11.1903C53.2878 10.9072 53.1435 11.1903 53.0474 11.5138C52.9993 11.8373 52.7108 12.0799 52.5185 12.4439H52.4705C52.4224 12.2417 52.3743 11.9991 52.2782 11.7564C52.182 11.4733 52.1339 11.1903 52.1339 10.9476C52.1339 10.9072 52.1339 10.9072 52.182 10.8667C53.1916 10.0579 52.807 9.2491 55.932 8.48073C56.3166 8.35941 56.7013 8.23809 57.0378 8.11677C56.7013 8.31897 56.4128 8.44029 56.1243 8.56161C56.1243 8.56161 56.1243 8.60206 56.1724 8.60206C56.7493 8.39985 57.4224 8.15721 57.759 8.07633C57.2782 8.27853 56.7493 8.52117 56.4609 8.68294C56.2205 8.80426 55.9801 8.96602 55.8359 9.16822C55.6436 9.41087 55.4032 9.65351 55.1628 9.85571C55.1147 9.93659 55.1628 10.0175 55.2589 9.97704C55.8839 9.77483 56.557 9.53219 56.7493 9.49175C56.7974 9.49175 56.7974 9.49175 56.8455 9.49175L60.0186 9.28954L58.5763 9.57263C58.4801 9.57263 58.4801 9.69395 58.5763 9.69395C59.5378 9.73439 61.9898 9.69395 64.634 8.31897C66.6532 7.26752 67.0379 6.98443 67.0859 6.90355C67.0859 6.86311 67.0859 6.86311 67.0859 6.82267L67.1821 6.62047C67.134 7.87412 67.6629 9.97704 67.6148 10.6241C67.5667 11.2307 67.4706 11.5947 67.3744 11.716C67.3744 11.716 67.3263 11.716 67.3263 11.6755C67.2782 11.4733 67.2302 11.2307 67.134 11.0285C67.0859 10.9476 66.9417 10.9476 66.9417 11.0285C66.9417 11.0689 66.9417 11.0689 66.9417 11.1094C66.9417 11.5138 67.5667 12.727 67.3744 13.7784C67.3744 13.7784 67.3263 13.8189 67.3263 13.7784L66.9898 13.5358C66.8456 13.4145 66.5571 13.4549 66.3648 13.5358C66.3167 13.5762 66.2205 13.5762 66.1244 13.5762C65.7878 13.5762 64.5378 13.6571 64.2494 13.6571L64.9225 13.5358C65.0186 13.4954 65.0186 13.374 64.9225 13.374C64.5859 13.3336 64.1051 13.3336 63.7686 13.4954C63.4321 13.6571 62.0859 13.738 62.2301 14.0211C62.3744 14.2637 61.2686 14.5468 61.0282 14.5873C60.9801 14.5873 60.9801 14.5873 60.9801 14.5468V14.5064C60.932 14.4255 60.7878 14.4255 60.7397 14.5468C60.7397 14.6277 60.7397 14.6681 60.6917 14.7086C60.6436 14.7895 61.3167 15.2343 61.4609 15.3961C61.6051 15.5578 61.9417 14.7895 62.2301 14.8703C62.5667 14.9512 61.7494 15.5983 61.7494 15.7196C61.7494 15.8005 61.9417 16.0431 62.0859 16.2453C62.2301 16.4475 62.5186 16.5688 62.8071 16.5688C62.9032 16.5688 63.0475 16.5688 63.1436 16.5284C63.384 16.488 62.8071 16.4475 62.6147 16.4071C62.5186 16.4071 62.4224 16.2858 62.3744 16.2049C62.2301 16.0027 62.1821 15.7196 62.4224 15.5578C62.5186 15.477 62.7109 15.3556 62.9994 15.2343H63.0475C63.0475 15.2748 62.9994 15.3152 62.9513 15.3556C62.8551 15.4365 62.7109 15.5578 62.6628 15.5983C62.6148 15.6387 62.6148 15.7196 62.6628 15.76C62.759 15.8005 62.9032 15.8005 62.9994 15.76C63.0955 15.7196 63.2878 15.76 63.4801 15.8409C63.7205 15.9622 63.9609 16.124 64.2494 16.1644C64.4898 16.2049 64.8263 16.2453 65.2109 16.2453C65.259 16.2453 65.259 16.1644 65.2109 16.1644C64.9705 16.124 64.8263 16.0836 64.8263 16.0431C64.8263 15.9622 64.9705 16.0836 65.3552 16.0431C65.4032 16.0431 65.4032 15.9622 65.3552 15.9622C65.0186 15.9622 64.634 15.9218 64.3455 15.8005C64.009 15.6387 63.5763 15.5174 63.384 15.477C63.384 15.477 63.384 15.477 63.384 15.4365C63.5282 15.3556 63.7686 15.2748 64.1051 15.2343C64.1532 15.2343 64.1532 15.2343 64.1532 15.2748C64.1532 15.3556 64.2013 15.3961 64.2494 15.4365C64.3936 15.6387 64.6821 15.7196 65.0186 15.7196C65.1148 15.7196 65.2109 15.7196 65.3071 15.7196C65.5955 15.6792 65.884 15.5578 65.9802 15.3556C65.9802 15.3152 65.9802 15.3152 66.0282 15.2748C66.0282 15.2343 66.0763 15.2343 66.0763 15.2343C66.4609 15.2343 66.6052 15.2747 66.6532 15.3961C66.7013 15.5578 66.6052 15.5983 66.509 15.7196C66.4609 15.76 66.509 15.76 66.5571 15.76C66.8456 15.76 67.0379 15.5174 67.2302 15.3961C67.3263 15.3556 67.4706 15.2748 67.7109 15.2748C67.759 15.3152 67.8552 15.3152 67.9032 15.2748C67.9513 15.2343 68.0475 15.1939 68.0956 15.1534C68.2879 14.9917 68.2879 14.749 68.2398 14.5064C68.1917 14.2233 68.1436 13.738 68.1917 13.0101C68.2398 12.6866 68.2879 12.2417 68.3359 11.7969C68.384 12.9696 68.5763 13.9807 68.9609 13.9807C69.2975 13.9807 69.2494 15.3152 69.0571 16.0836C69.009 16.1644 69.1533 16.2453 69.2494 16.1644H69.2975L69.2494 16.5284C69.2013 16.7711 69.2975 17.0137 69.2975 17.2563C69.2975 17.499 69.2975 17.8629 69.009 18.3482C68.7686 18.7526 68.4802 18.9953 68.1917 19.1975C68.2398 19.157 68.2398 19.0762 68.2879 19.0357C68.3359 18.9548 68.1917 18.9144 68.1436 18.9953C67.9032 19.2379 67.7109 19.3997 67.4706 19.521C67.2302 19.6423 67.0859 19.8041 66.9898 20.0063C66.9417 20.2085 66.8936 20.4511 66.9417 20.6938C66.9898 21.2195 66.9417 22.2305 66.4609 23.3629C66.2686 23.8482 66.2205 24.0504 66.509 23.646C67.1821 22.7158 67.3263 21.26 67.3744 20.6938C67.3744 20.6533 67.3744 20.6533 67.4225 20.6129C67.7109 20.4107 68.3359 20.0063 68.8167 19.6019H68.8648C68.9129 20.6533 68.8648 22.6349 68.384 23.7268C67.9032 25.1827 66.6532 25.7893 66.0763 26.2746ZM58.2878 20.8555C58.1436 20.8151 58.0474 20.7747 57.9032 20.7342C57.8551 20.7342 57.8551 20.6938 57.8551 20.6533V20.6129C57.8551 20.4916 57.9513 20.4107 58.0955 20.3703C57.9032 20.532 58.0474 20.6533 58.2878 20.8555Z" fill="#2B2B29"/>
</svg>
