<svg width="20" height="20" viewBox="0 0 20 20" fill="none" xmlns="http://www.w3.org/2000/svg">
<path d="M5.68965 13.77L8.98069 17.8827C9.54202 18.5842 10.4521 18.5842 11.0135 17.8827L18.3056 8.76986C18.867 8.06838 18.867 6.93106 18.3056 6.22958L15.0146 2.11686C14.4533 1.41538 13.5432 1.41539 12.9818 2.11686L5.68965 11.2297C5.12832 11.9312 5.12832 13.0685 5.68965 13.77Z" stroke="#BABABA"/>
<path d="M4.98516 2.11739L1.69412 6.2301C1.13278 6.93158 1.13278 8.06891 1.69412 8.77038L8.98631 17.8832C9.54764 18.5847 10.4577 18.5847 11.0191 17.8832L14.3101 13.7705C14.8714 13.069 14.8714 11.9317 14.3101 11.2302L7.01792 2.11739C6.45659 1.41591 5.54649 1.41591 4.98516 2.11739Z" stroke="#BABABA"/>
</svg>
