<svg width="115" height="116" viewBox="0 0 115 116" fill="none" xmlns="http://www.w3.org/2000/svg">
<path d="M113.918 88.8727C111.818 89.1727 109.518 88.4727 105.818 86.9727C98.8178 84.2727 94.7178 79.8727 93.2178 74.2727C92.1178 70.1727 88.8178 69.6727 87.1178 66.9727C87.5178 66.9727 87.9178 66.9727 88.3178 66.9727C88.9178 66.9727 89.4178 66.2727 88.9178 65.9727C87.7178 65.2727 86.3178 64.8727 84.9178 64.6727C84.5178 64.6727 84.4178 64.1727 84.7178 63.9727C85.7178 63.4727 87.0178 63.1727 88.1178 62.8727C88.3178 62.7727 88.1178 62.5727 87.9178 62.5727C85.7178 63.0727 82.9178 63.4727 80.8178 63.5727C79.9178 63.6727 79.5178 64.5727 79.7178 65.3727C80.0178 66.6727 79.7178 68.1727 79.0178 68.6727C79.2178 69.4727 79.1178 69.9727 79.5178 71.0727C80.0178 72.2727 79.9178 74.6727 78.7178 75.6727C77.7178 76.4727 76.6178 77.7727 75.4178 78.8727C75.1178 79.1727 75.4178 79.6727 75.8178 79.5727C75.9178 79.5727 76.0178 79.4727 76.0178 79.4727C76.3178 79.3727 76.6178 79.6727 76.4178 79.9727C73.2178 84.7727 70.6178 86.2727 64.6178 88.5727C62.5178 89.3727 58.9178 91.0727 56.0178 90.9727C55.0178 91.6727 54.1178 92.2727 53.0178 92.6727C52.5178 92.8727 52.5178 93.6727 53.0178 93.6727C53.8178 93.6727 54.5178 93.4727 55.2178 93.1727C57.8178 93.1727 60.4178 92.9727 62.9178 92.4727C63.1178 92.4727 63.2178 92.6727 63.0178 92.7727C59.8178 94.4727 56.4178 95.7727 52.9178 95.8727C51.2178 96.3727 49.2178 97.0727 47.8178 96.5727C45.6178 95.8727 43.8178 93.0727 44.4178 90.7727C42.9178 90.2727 41.7178 89.1727 41.4178 87.3727C42.2178 87.7727 43.2178 88.2727 44.2178 88.5727C44.7178 88.7727 45.1178 88.0727 44.7178 87.6727C43.8178 86.9727 42.7178 86.0727 41.5178 84.2727C37.8178 79.0727 36.4178 74.6727 37.0178 70.4727C37.0178 70.2727 36.7178 70.1727 36.6178 70.3727C36.3178 71.0727 36.1178 71.8727 35.9178 72.5727C35.9178 72.6727 35.6178 72.6727 35.6178 72.5727C35.7178 70.8727 36.2178 68.3727 36.6178 67.5727C34.9178 64.8727 33.8178 59.7727 33.4178 55.2727C34.2178 55.1727 35.0178 55.0727 35.8178 54.7727C37.1178 54.3727 39.6178 53.5727 42.3178 51.8727C42.4178 54.6727 42.4178 55.2727 42.6178 56.5727C42.6178 56.6727 42.6178 56.8727 42.6178 56.9727C43.0178 59.3727 43.6178 61.6727 44.2178 64.0727C44.9178 66.6727 45.3178 66.2727 44.9178 64.1727C44.8178 63.6727 44.7178 63.1727 44.6178 62.6727C44.5178 62.3727 44.9178 62.0727 45.1178 62.3727C49.0178 66.7727 52.2178 71.2727 52.7178 77.8727C52.9178 79.7727 54.1178 82.5727 55.5178 83.0727C55.5178 82.9727 55.5178 82.7727 55.5178 82.6727C56.7178 80.7727 58.8178 79.5727 60.3178 78.8727C63.8178 77.2727 58.0178 76.7727 54.4178 73.8727C53.6178 73.2727 53.0178 72.5727 52.5178 71.9727C52.1178 70.8727 51.6178 69.8727 51.0178 68.9727C50.3178 65.1727 54.0178 61.6727 60.4178 59.9727C66.8178 58.2727 70.5178 59.4727 73.2178 61.1727C73.5178 61.3727 73.8178 60.9727 73.6178 60.7727C72.1178 59.4727 69.7178 58.1727 68.1178 57.8727C68.9178 56.6727 69.5178 55.7727 70.3178 54.9727C70.7178 54.6727 70.3178 53.9727 69.8178 54.1727H69.7178C72.3178 46.0727 83.4178 38.7727 90.8178 40.5727C92.9178 41.0727 99.6178 42.9727 103.018 46.3727C106.218 47.8727 109.218 47.3727 113.118 47.6727C113.618 47.6727 113.918 47.0727 113.418 46.7727C110.518 45.2727 105.718 42.8727 105.018 41.8727C106.318 40.8727 108.418 39.5727 110.318 38.7727C110.618 38.6727 110.518 38.2727 110.218 38.2727C107.218 38.5727 103.418 39.3727 101.018 40.5727C98.5178 38.9727 90.5178 38.5727 87.7178 38.3727C87.5178 38.3727 87.3178 38.4727 87.1178 38.4727C80.3178 39.4727 67.1178 46.2727 66.5178 55.8727C66.3178 56.2727 65.8178 56.9727 65.4178 57.3727C58.8178 57.6727 52.3178 59.6727 49.1178 65.6727C47.6178 63.7727 46.0178 61.8727 44.3178 60.0727C44.1178 58.8727 43.9178 57.6727 43.8178 56.4727C44.7178 56.5727 45.9178 56.6727 47.5178 56.8727C49.3178 57.0727 50.7178 57.2727 52.5178 57.0727C55.4178 56.8727 58.0178 55.9727 60.5178 54.4727C61.4178 53.9727 61.9178 53.6727 62.2178 53.3727C65.6178 50.9727 69.3178 46.1727 70.6178 41.6727C71.9178 37.1727 72.3178 32.8727 70.9178 28.0727C69.7178 23.9727 67.4178 20.4727 64.6178 18.1727C64.2178 17.7727 63.9178 17.5727 63.4178 17.2727C62.1178 16.3727 61.7178 16.1727 58.7178 14.6727C55.9178 13.2727 57.3178 13.9727 56.7178 13.6727C54.3178 12.4727 52.3178 11.2727 48.6178 10.7727C47.4178 9.47272 46.2178 8.47273 44.5178 7.47273C43.8178 7.07273 34.8178 2.47273 33.7178 1.87273C33.6178 1.87273 33.5178 1.77272 33.4178 1.77272C30.2178 0.272721 26.5178 -0.427279 22.2178 0.272721C13.6178 1.67272 6.31781 8.67271 2.81781 16.5727C1.11781 20.5727 0.117792 24.1727 0.017792 28.5727C-0.182208 34.8727 1.31781 40.1727 3.81781 44.3727C6.91781 49.4727 12.2178 53.2727 18.6178 53.8727C21.8178 54.1727 24.3178 54.4727 26.3178 54.6727C26.3178 54.9727 26.3178 55.1727 26.2178 55.4727C25.5178 64.6727 26.1178 77.4727 29.2178 86.0727C30.3178 89.2727 33.2178 92.2727 36.0178 94.9727C36.1178 95.6727 36.3178 96.4727 36.5178 97.1727C37.2178 97.5727 37.9178 97.9727 38.7178 98.1727C41.1178 98.8727 44.2178 98.2727 46.9178 97.6727C48.9178 97.6727 51.0178 97.0727 52.9178 96.3727C57.3178 96.3727 62.5178 94.7727 65.8178 91.7727C66.1178 91.4727 66.4178 91.2727 66.6178 90.9727C68.6178 90.3727 70.5178 89.5727 72.4178 88.6727C76.0178 86.8727 79.2178 84.1727 81.7178 81.1727C82.3178 85.6727 84.5178 89.3727 87.8178 92.8727C89.0178 99.2727 93.8178 110.273 98.3178 114.973C98.7178 115.373 99.2178 114.873 99.1178 114.373C98.5178 112.573 98.4178 110.773 99.0178 108.673C97.8178 107.373 97.1178 105.473 97.4178 102.173C97.5178 100.973 99.2178 101.273 100.918 101.673C100.818 101.073 100.818 100.373 100.918 99.6727C94.3178 95.3727 91.6178 91.2727 91.2178 84.1727C91.8178 84.6727 92.4178 85.1727 93.0178 85.4727C96.8178 87.4727 107.318 90.8727 111.618 90.1727C112.518 90.0727 113.218 89.6727 113.918 89.2727C114.818 89.3727 114.418 88.7727 113.918 88.8727ZM60.6178 19.6727C62.3178 20.4727 64.2178 25.4727 64.5178 28.3727C65.3178 35.1727 63.7178 38.5727 63.3178 38.9727L63.2178 39.0727C63.0178 38.8727 63.1178 38.5727 63.2178 38.1727C63.2178 38.0727 63.3178 37.9727 63.3178 37.8727C64.8178 27.7727 62.3178 25.1727 60.6178 19.6727ZM60.6178 17.3727C61.2178 17.6727 61.7178 18.0727 62.1178 18.5727C62.2178 18.6727 62.3178 18.8727 62.4178 18.9727C63.2178 20.0727 64.3178 20.9727 65.1178 22.1727C65.4178 22.6727 64.6178 21.0727 64.3178 20.6727C63.9178 20.1727 63.6178 19.5727 63.1178 19.1727C63.0178 19.0727 63.2178 18.8727 63.3178 18.8727C63.9178 19.1727 64.4178 19.5727 64.7178 19.9727C64.8178 20.0727 64.8178 20.1727 64.9178 20.1727C65.8178 21.2727 66.9178 22.1727 67.6178 23.3727C68.0178 23.8727 67.0178 22.1727 66.6178 21.6727C66.3178 21.1727 65.9178 20.6727 65.5178 20.2727C65.4178 20.1727 65.5178 19.9727 65.6178 20.0727C66.0178 20.2727 66.3178 20.4727 66.6178 20.7727C73.5178 28.4727 72.7178 39.7727 67.5178 47.7727C67.3178 48.0727 66.8178 48.2727 66.4178 48.2727C66.1178 48.1727 65.9178 47.8727 66.1178 47.5727C67.7178 44.9727 68.9178 42.0727 69.5178 39.0727H69.4178C69.2178 39.7727 68.9178 40.3727 68.5178 40.5727C68.5178 40.0727 68.5178 40.1727 68.6178 38.8727H68.4178C67.8178 41.1727 66.8178 44.3727 64.8178 47.4727C64.6178 47.8727 64.1178 48.0727 63.6178 47.9727C63.2178 47.8727 63.1178 47.4727 63.3178 47.1727C65.0178 44.5727 66.3178 41.6727 66.9178 38.5727L66.7178 38.4727C66.5178 39.1727 66.2178 39.7727 65.8178 39.8727C65.8178 39.3727 65.8178 39.3727 65.9178 38.1727H65.8178C65.2178 40.5727 64.1178 43.7727 62.1178 46.8727C61.8178 47.2727 61.3178 47.4727 60.9178 47.3727C60.5178 47.2727 60.4178 46.8727 60.6178 46.5727C66.6178 37.5727 66.4178 25.3727 60.0178 17.8727C60.2178 17.4727 60.4178 17.2727 60.6178 17.3727ZM40.4178 7.07271C41.2178 7.47271 41.9178 7.97271 42.5178 8.67271C43.8178 10.3727 44.9178 12.2727 45.8178 14.2727C45.3178 12.9727 44.9178 12.0727 44.7178 11.5727C45.1178 11.7727 45.5178 12.0727 45.9178 12.4727C46.0178 12.5727 46.1178 12.4727 46.1178 12.3727C45.5178 11.2727 44.8178 10.2727 44.0178 9.37273C43.9178 9.27273 44.2178 8.97271 44.3178 9.07271C45.0178 9.47271 45.7178 9.97271 46.2178 10.5727C46.8178 11.2727 47.3178 11.9727 47.7178 12.7727C48.0178 13.1727 48.5178 13.3727 48.9178 13.6727C49.1178 13.7727 49.2178 13.4727 49.1178 13.2727C48.8178 12.8727 48.5178 12.3727 48.2178 11.9727C47.9178 11.5727 48.3178 11.0727 48.7178 11.3727C49.6178 11.9727 49.9178 12.4727 50.1178 12.7727C56.9178 21.8727 55.8178 34.8727 49.9178 43.9727C49.6178 44.4727 48.9178 44.7727 48.3178 44.6727C47.8178 44.5727 47.6178 44.0727 47.9178 43.6727C48.6178 42.6727 49.2178 41.5727 49.8178 40.4727C50.9178 38.2727 51.7178 36.0727 52.2178 33.7727L51.9178 33.6727C51.6178 34.3727 51.3178 34.8727 51.0178 34.9727C51.0178 34.5727 51.0178 34.5727 51.1178 33.3727L50.7178 33.2727C50.2178 35.5727 49.4178 37.8727 48.3178 40.0727C48.1178 40.3727 48.0178 40.6727 47.8178 40.9727C47.4178 41.7727 46.9178 42.5727 46.4178 43.3727C46.0178 43.8727 45.4178 44.1727 44.8178 44.0727C44.3178 43.9727 44.1178 43.3727 44.4178 42.9727C46.5178 39.7727 48.0178 36.2727 48.8178 32.7727L48.4178 32.6727C48.2178 33.3727 47.9178 33.8727 47.5178 33.9727C47.5178 33.5727 47.5178 33.5727 47.6178 32.4727L47.1178 32.3727C46.2178 36.0727 44.7178 39.5727 42.7178 42.6727C42.3178 43.2727 41.6178 43.5727 40.9178 43.3727C40.4178 43.2727 40.1178 42.6727 40.4178 42.2727C45.0178 35.2727 47.2178 26.1727 45.1178 17.2727C44.2178 13.5727 42.6178 10.1727 40.3178 7.47273C40.0178 7.27273 40.2178 6.97271 40.4178 7.07271ZM43.5178 20.7727C42.9178 15.1727 40.8178 11.5727 40.5178 10.0727C42.5178 10.9727 44.5178 17.0727 44.8178 20.3727C45.4178 26.7727 44.2178 31.1727 43.5178 32.5727C43.3178 32.8727 43.1178 31.9727 43.2178 31.5727C43.4178 29.5727 43.9178 25.1727 43.5178 20.7727ZM4.41782 34.0727C4.21782 33.2727 4.11779 32.3727 4.01779 31.4727C3.71779 26.9727 4.6178 23.4727 5.2178 22.4727C5.4178 22.1727 5.81781 22.6727 5.81781 22.9727C5.81781 23.1727 5.7178 23.5727 5.7178 24.1727C5.3178 27.2727 5.21781 30.3727 5.81781 33.8727C5.81781 33.9727 5.8178 34.0727 5.7178 34.0727C5.6178 34.0727 5.41781 34.0727 5.31781 34.1727C5.11781 34.1727 4.8178 34.2727 4.6178 34.2727C4.5178 34.2727 4.41782 34.1727 4.41782 34.0727ZM7.01779 39.3727C6.71779 39.6727 5.71782 38.0727 4.91782 35.7727C4.91782 35.6727 4.91779 35.6727 5.01779 35.6727C5.31779 35.6727 5.71779 35.5727 6.01779 35.5727C6.11779 35.5727 6.2178 35.5727 6.2178 35.6727C6.3178 35.9727 6.31782 36.1727 6.41782 36.4727C6.91782 38.6727 7.11779 39.2727 7.01779 39.3727ZM16.4178 32.5727C15.2178 31.7727 14.1178 30.2727 13.8178 28.2727C13.7178 27.8727 13.5178 27.5727 13.1178 27.4727L9.31781 26.4727C9.31781 26.4727 9.21781 26.4727 9.31781 26.3727C9.31781 26.3727 9.31782 26.2727 9.41782 26.2727C12.3178 26.7727 13.8178 21.2727 11.0178 20.2727C11.0178 20.2727 10.9178 20.2727 11.0178 20.1727C11.0178 20.1727 11.0178 20.0727 11.1178 20.1727C11.5178 20.2727 13.8178 21.0727 15.0178 21.3727C15.4178 21.4727 15.8178 21.3727 16.1178 21.0727C16.9178 20.1727 17.9178 19.4727 18.9178 19.1727C19.0178 19.1727 19.0178 19.1727 19.0178 19.2727C19.0178 19.3727 19.0178 19.3727 18.9178 19.3727C17.9178 19.7727 17.1178 20.3727 16.3178 21.1727C16.1178 21.3727 16.2178 21.7727 16.5178 21.7727L20.7178 23.0727C22.2178 23.5727 22.7178 25.5727 21.9178 27.1727C20.6178 29.8727 18.7178 28.8727 14.7178 27.7727C14.4178 27.6727 14.1178 27.9727 14.2178 28.2727C14.5178 29.8727 15.3178 31.3727 16.5178 32.1727C16.6178 32.1727 16.6178 32.2727 16.6178 32.3727C16.6178 32.6727 16.5178 32.6727 16.4178 32.5727ZM28.4178 24.8727C28.3178 24.8727 28.3178 24.9727 28.3178 24.9727C28.6178 27.3727 27.8178 29.9727 26.3178 31.8727C26.3178 31.8727 26.2178 31.9727 26.3178 31.9727C25.1178 33.3727 23.5178 34.2727 22.1178 34.4727C21.5178 34.5727 21.4178 34.5727 21.1178 34.5727C20.1178 34.4727 18.4178 34.0727 17.9178 33.9727V33.8727H18.0178C18.1178 33.8727 18.2178 33.8727 18.3178 33.9727C19.3178 34.2727 20.9178 34.1727 22.4178 33.2727C27.7178 30.1727 26.5178 23.1727 26.6178 24.3727C26.8178 26.4727 26.2178 27.6727 26.0178 27.8727C25.9178 27.9727 25.9178 27.8727 25.8178 27.7727C25.8178 27.5727 25.8178 27.2727 25.8178 27.1727C26.2178 24.3727 25.6178 22.8727 25.4178 22.0727C25.3178 21.8727 25.5178 21.3727 25.6178 21.5727C25.7178 21.6727 25.8178 21.7727 25.9178 21.9727L26.0178 22.0727C25.4178 20.5727 24.3178 19.3727 22.7178 18.7727C22.1178 18.5727 21.6178 18.4727 21.0178 18.4727C21.0178 18.4727 20.9178 18.4727 20.9178 18.3727C20.9178 18.3727 20.9178 18.2727 21.0178 18.2727C21.6178 18.2727 22.2178 18.3727 22.8178 18.5727C24.4178 19.1727 25.5178 19.3727 26.7178 20.5727C27.2178 21.1727 27.7178 21.7727 28.0178 22.5727C28.1178 23.3727 28.3178 24.0727 28.4178 24.8727Z" fill="white"/>
</svg>
