<svg width="24" height="24" viewBox="0 0 24 24" fill="none" xmlns="http://www.w3.org/2000/svg">
<rect x="0.5" y="0.5" width="23" height="23" stroke="#F79517"/>
<path d="M16.34 2H7.67C4.28 2 2 4.38 2 7.92V16.091C2 19.62 4.28 22 7.67 22H16.34C19.73 22 22 19.62 22 16.091V7.92C22 4.38 19.73 2 16.34 2Z" fill="#F79517"/>
<path d="M16.615 10.495L11.865 15.245C11.695 15.415 11.475 15.495 11.245 15.495C11.025 15.495 10.805 15.415 10.635 15.245L8.255 12.875C7.915 12.525 7.915 11.975 8.255 11.635C8.595 11.295 9.155 11.295 9.495 11.635L11.245 13.385L15.375 9.255C15.715 8.915 16.275 8.915 16.615 9.255C16.955 9.605 16.955 10.155 16.615 10.495Z" fill="black"/>
</svg>
